<svg width="14" height="15" viewBox="0 0 14 15" fill="none" xmlns="http://www.w3.org/2000/svg">
<path d="M4.51825 13.4086H9.48181C11.976 13.4086 12.4227 12.4097 12.553 11.1936L13.0184 6.23002C13.1859 4.71613 12.7516 3.48145 10.1023 3.48145H3.89781C1.24851 3.48145 0.814196 4.71613 0.981716 6.23002L1.44705 11.1936C1.57734 12.4097 2.02406 13.4086 4.51825 13.4086Z" stroke="#A2A3A7" stroke-width="1.5" stroke-miterlimit="10" stroke-linecap="round" stroke-linejoin="round"/>
<path d="M4.51831 3.48178V2.98542C4.51831 1.88724 4.51831 1 6.50374 1H7.49645C9.48187 1 9.48187 1.88724 9.48187 2.98542V3.48178" stroke="#A2A3A7" stroke-width="1.5" stroke-miterlimit="10" stroke-linecap="round" stroke-linejoin="round"/>
<path d="M8.24106 7.82455V8.44499C8.24106 8.4512 8.24106 8.4512 8.24106 8.4574C8.24106 9.13369 8.23485 9.68588 7.00017 9.68588C5.77169 9.68588 5.75928 9.13989 5.75928 8.46361V7.82455C5.75928 7.2041 5.75928 7.2041 6.37972 7.2041H7.62061C8.24106 7.2041 8.24106 7.2041 8.24106 7.82455Z" stroke="#A2A3A7" stroke-width="1.5" stroke-miterlimit="10" stroke-linecap="round" stroke-linejoin="round"/>
<path d="M12.9874 6.58447C11.5541 7.62682 9.91617 8.24727 8.24097 8.45822" stroke="#A2A3A7" stroke-width="1.5" stroke-miterlimit="10" stroke-linecap="round" stroke-linejoin="round"/>
<path d="M1.18042 6.75146C2.57642 7.70695 4.15235 8.28396 5.75931 8.46389" stroke="#A2A3A7" stroke-width="1.5" stroke-miterlimit="10" stroke-linecap="round" stroke-linejoin="round"/>
</svg>
