<svg width="20" height="20" viewBox="0 0 20 20" fill="none" xmlns="http://www.w3.org/2000/svg">
<path d="M18.3333 4.99984V7.0165C18.3333 8.33317 17.4999 9.1665 16.1833 9.1665H13.3333V3.3415C13.3333 2.4165 14.0916 1.6665 15.0166 1.6665C15.9249 1.67484 16.7583 2.0415 17.3583 2.6415C17.9583 3.24984 18.3333 4.08317 18.3333 4.99984Z" stroke="#FF9800" stroke-width="1.5" stroke-miterlimit="10" stroke-linecap="round" stroke-linejoin="round"/>
<path d="M1.66675 5.83317V17.4998C1.66675 18.1915 2.45009 18.5832 3.00009 18.1665L4.42508 17.0998C4.75841 16.8498 5.22509 16.8832 5.52509 17.1832L6.90841 18.5748C7.23341 18.8998 7.76675 18.8998 8.09175 18.5748L9.49175 17.1748C9.78341 16.8832 10.2501 16.8498 10.5751 17.0998L12.0001 18.1665C12.5501 18.5748 13.3334 18.1832 13.3334 17.4998V3.33317C13.3334 2.4165 14.0834 1.6665 15.0001 1.6665H5.83341H5.00008C2.50008 1.6665 1.66675 3.15817 1.66675 4.99984V5.83317Z" stroke="#FF9800" stroke-width="1.5" stroke-miterlimit="10" stroke-linecap="round" stroke-linejoin="round"/>
</svg>
