<svg width="20" height="20" viewBox="0 0 20 20" fill="none" xmlns="http://www.w3.org/2000/svg">
<path fill-rule="evenodd" clip-rule="evenodd" d="M9.27771 7.91719C9.04726 8.31557 8.53748 8.45171 8.1391 8.22126C7.74072 7.9908 7.60458 7.48103 7.83503 7.08265C8.26604 6.33757 9.07367 5.83325 10.0001 5.83325C11.3808 5.83325 12.5001 6.95254 12.5001 8.33325C12.5001 9.24802 11.9389 9.9949 11.2501 10.4166C10.6967 10.7553 11.0417 11.6666 9.99788 11.6666C9.53765 11.6666 9.16455 11.2935 9.16455 10.8333C9.16455 10.804 9.16606 10.7751 9.169 10.7466C9.19211 10.3059 9.38863 9.94729 9.6026 9.68654C9.82858 9.41115 10.1257 9.18634 10.3529 9.05129C11.6168 8.29992 10.0752 6.76275 9.27771 7.91719ZM9.99788 12.4999C9.53765 12.4999 9.16455 12.873 9.16455 13.3333C9.16455 13.7935 9.53765 14.1666 9.99788 14.1666C10.4581 14.1666 10.8312 13.7935 10.8312 13.3333C10.8312 12.873 10.4581 12.4999 9.99788 12.4999Z" fill="#262E3D"/>
<path fill-rule="evenodd" clip-rule="evenodd" d="M8.63099 2.5H11.369C12.2722 2.49999 13.0006 2.49999 13.5905 2.54818C14.1979 2.59781 14.7314 2.70265 15.225 2.95414C16.009 3.35361 16.6464 3.99103 17.0459 4.77504C17.2973 5.26862 17.4022 5.80211 17.4518 6.40948C17.5 6.99938 17.5 7.72783 17.5 8.63097V11.369C17.5 12.2722 17.5 13.0006 17.4518 13.5905C17.4022 14.1979 17.2973 14.7314 17.0459 15.225C16.6464 16.009 16.009 16.6464 15.225 17.0459C14.7314 17.2973 14.1979 17.4022 13.5905 17.4518C13.0006 17.5 12.2722 17.5 11.369 17.5H8.63097C7.72783 17.5 6.99937 17.5 6.40948 17.4518C5.80211 17.4022 5.26862 17.2973 4.77504 17.0459C3.99103 16.6464 3.35361 16.009 2.95414 15.225C2.70265 14.7314 2.59781 14.1979 2.54818 13.5905C2.49999 13.0006 2.49999 12.2722 2.5 11.369V8.63099C2.49999 7.72784 2.49999 6.99938 2.54818 6.40948C2.59781 5.80211 2.70265 5.26862 2.95414 4.77504C3.35361 3.99103 3.99103 3.35361 4.77504 2.95414C5.26862 2.70265 5.80211 2.59781 6.40948 2.54818C6.99938 2.49999 7.72784 2.49999 8.63099 2.5ZM6.5452 4.20931C6.04089 4.25052 5.75115 4.32733 5.53169 4.43915C5.06129 4.67883 4.67883 5.06129 4.43915 5.53169C4.32733 5.75115 4.25052 6.04089 4.20931 6.5452C4.16732 7.05924 4.16667 7.7195 4.16667 8.66667V11.3333C4.16667 12.2805 4.16732 12.9408 4.20931 13.4548C4.25052 13.9591 4.32733 14.2488 4.43915 14.4683C4.67883 14.9387 5.06129 15.3212 5.53169 15.5609C5.75115 15.6727 6.04089 15.7495 6.5452 15.7907C7.05924 15.8327 7.7195 15.8333 8.66667 15.8333H11.3333C12.2805 15.8333 12.9408 15.8327 13.4548 15.7907C13.9591 15.7495 14.2488 15.6727 14.4683 15.5609C14.9387 15.3212 15.3212 14.9387 15.5609 14.4683C15.6727 14.2488 15.7495 13.9591 15.7907 13.4548C15.8327 12.9408 15.8333 12.2805 15.8333 11.3333V8.66667C15.8333 7.7195 15.8327 7.05924 15.7907 6.5452C15.7495 6.04089 15.6727 5.75115 15.5609 5.53169C15.3212 5.06129 14.9387 4.67883 14.4683 4.43915C14.2488 4.32733 13.9591 4.25052 13.4548 4.20931C12.9408 4.16732 12.2805 4.16667 11.3333 4.16667H8.66667C7.7195 4.16667 7.05924 4.16732 6.5452 4.20931Z" fill="#262E3D"/>
</svg>
