<svg width="20" height="20" viewBox="0 0 20 20" fill="none" xmlns="http://www.w3.org/2000/svg">
<path d="M15.0001 5.96675C14.9501 5.95842 14.8918 5.95842 14.8418 5.96675C13.6918 5.92508 12.7751 4.98342 12.7751 3.81675C12.7751 2.62508 13.7335 1.66675 14.9251 1.66675C16.1168 1.66675 17.0751 2.63342 17.0751 3.81675C17.0668 4.98342 16.1501 5.92508 15.0001 5.96675Z" stroke="#292D32" stroke-width="1.5" stroke-linecap="round" stroke-linejoin="round"/>
<path d="M14.1419 12.0335C15.2836 12.2252 16.5419 12.0252 17.4253 11.4335C18.6003 10.6502 18.6003 9.36688 17.4253 8.58355C16.5336 7.99188 15.2586 7.79188 14.1169 7.99188" stroke="#292D32" stroke-width="1.5" stroke-linecap="round" stroke-linejoin="round"/>
<path d="M4.97466 5.96675C5.02466 5.95842 5.08299 5.95842 5.13299 5.96675C6.28299 5.92508 7.19966 4.98342 7.19966 3.81675C7.19966 2.62508 6.24133 1.66675 5.04966 1.66675C3.85799 1.66675 2.89966 2.63342 2.89966 3.81675C2.90799 4.98342 3.82466 5.92508 4.97466 5.96675Z" stroke="#292D32" stroke-width="1.5" stroke-linecap="round" stroke-linejoin="round"/>
<path d="M5.83304 12.0335C4.69137 12.2252 3.43304 12.0252 2.54971 11.4335C1.37471 10.6502 1.37471 9.36688 2.54971 8.58355C3.44137 7.99188 4.71637 7.79188 5.85804 7.99188" stroke="#292D32" stroke-width="1.5" stroke-linecap="round" stroke-linejoin="round"/>
<path d="M10.0001 12.1916C9.95014 12.1833 9.89181 12.1833 9.84181 12.1916C8.69181 12.1499 7.77515 11.2083 7.77515 10.0416C7.77515 8.84994 8.73348 7.8916 9.92514 7.8916C11.1168 7.8916 12.0751 8.85827 12.0751 10.0416C12.0668 11.2083 11.1501 12.1583 10.0001 12.1916Z" stroke="#292D32" stroke-width="1.5" stroke-linecap="round" stroke-linejoin="round"/>
<path d="M7.5751 14.8166C6.4001 15.5999 6.4001 16.8832 7.5751 17.6666C8.90843 18.5582 11.0918 18.5582 12.4251 17.6666C13.6001 16.8832 13.6001 15.5999 12.4251 14.8166C11.1001 13.9332 8.90843 13.9332 7.5751 14.8166Z" stroke="#292D32" stroke-width="1.5" stroke-linecap="round" stroke-linejoin="round"/>
</svg>
