<svg width="20" height="20" viewBox="0 0 20 20" fill="none" xmlns="http://www.w3.org/2000/svg">
<path fill-rule="evenodd" clip-rule="evenodd" d="M10.4167 1.66675C10.9912 1.66675 11.5114 1.89929 11.8883 2.27538C11.9029 2.28995 11.9173 2.30474 11.9315 2.31973C12.2646 2.6724 12.4759 3.14135 12.4981 3.6593L12.4988 3.67679C12.4997 3.70112 12.5001 3.72555 12.5001 3.75008V3.76197C12.5001 3.79584 12.5207 3.82629 12.552 3.83927C12.5833 3.85225 12.6194 3.84527 12.6433 3.8213L12.6517 3.8129C12.6691 3.79555 12.6867 3.77857 12.7045 3.76197L12.7173 3.75008C13.0992 3.39953 13.5803 3.21736 14.0652 3.20355C14.0858 3.20297 14.1065 3.20268 14.1271 3.20271C14.6595 3.20327 15.1918 3.40666 15.598 3.8129L16.1873 4.40215C16.5935 4.80839 16.7969 5.34064 16.7975 5.87308C16.7975 5.8937 16.7972 5.91432 16.7966 5.93493C16.7828 6.41987 16.6006 6.90091 16.2501 7.28287L16.2382 7.29571C16.2216 7.31351 16.2046 7.33109 16.1873 7.34843L16.1789 7.35684C16.1549 7.38081 16.1479 7.41689 16.1609 7.4482C16.1739 7.47949 16.2043 7.50008 16.2382 7.50008H16.2501C16.2746 7.50008 16.299 7.50051 16.3234 7.50135L16.3409 7.50202C16.8588 7.52423 17.3278 7.73555 17.6804 8.06869C17.6954 8.08286 17.7102 8.09724 17.7248 8.11184C18.1009 8.48873 18.3334 9.00891 18.3334 9.58342V10.4167C18.3334 10.9912 18.1009 11.5114 17.7248 11.8883C17.7102 11.9029 17.6954 11.9173 17.6804 11.9315C17.3278 12.2646 16.8588 12.4759 16.3409 12.4981L16.3234 12.4988C16.299 12.4997 16.2746 12.5001 16.2501 12.5001H16.2382C16.2043 12.5001 16.1739 12.5207 16.1609 12.552C16.1479 12.5833 16.1549 12.6194 16.1789 12.6433L16.1873 12.6517C16.2046 12.6691 16.2216 12.6867 16.2382 12.7045L16.2501 12.7173C16.6006 13.0992 16.7828 13.5803 16.7966 14.0652C16.7972 14.0858 16.7975 14.1065 16.7975 14.1271C16.7969 14.6595 16.5935 15.1918 16.1873 15.598L15.598 16.1873C15.1918 16.5935 14.6595 16.7969 14.1271 16.7975C14.1065 16.7975 14.0858 16.7972 14.0652 16.7966C13.5803 16.7828 13.0993 16.6006 12.7173 16.2501L12.7045 16.2382C12.6867 16.2216 12.6691 16.2046 12.6517 16.1873L12.6433 16.1789C12.6194 16.1549 12.5833 16.1479 12.552 16.1609C12.5207 16.1739 12.5001 16.2043 12.5001 16.2382V16.2501C12.5001 16.2746 12.4997 16.299 12.4988 16.3234L12.4981 16.3409C12.4759 16.8588 12.2646 17.3278 11.9315 17.6804C11.9173 17.6954 11.9029 17.7102 11.8883 17.7248C11.5114 18.1009 10.9913 18.3334 10.4167 18.3334H9.58341C9.00891 18.3334 8.48873 18.1009 8.11184 17.7248C8.09724 17.7102 8.08285 17.6954 8.06869 17.6804C7.73555 17.3278 7.52423 16.8588 7.50202 16.3409L7.50135 16.3234C7.50051 16.299 7.50008 16.2746 7.50008 16.2501V16.2382C7.50008 16.2043 7.47949 16.1739 7.4482 16.1609C7.41689 16.1479 7.3808 16.1549 7.35683 16.1789L7.34843 16.1873C7.33108 16.2046 7.31351 16.2216 7.29571 16.2382L7.28287 16.2501C6.90091 16.6006 6.41987 16.7828 5.93493 16.7966C5.91432 16.7972 5.8937 16.7975 5.87308 16.7975C5.34064 16.7969 4.80839 16.5935 4.40215 16.1873L3.8129 15.598C3.40666 15.1918 3.20327 14.6595 3.20271 14.1271C3.20268 14.1065 3.20297 14.0858 3.20355 14.0652C3.21736 13.5803 3.39953 13.0992 3.75008 12.7173L3.76197 12.7045C3.77857 12.6867 3.79555 12.6691 3.8129 12.6517L3.8213 12.6433C3.84527 12.6194 3.85225 12.5833 3.83927 12.552C3.82629 12.5207 3.79584 12.5001 3.76197 12.5001H3.75008C3.72555 12.5001 3.70112 12.4997 3.67679 12.4988L3.6593 12.4981C3.14135 12.4759 2.6724 12.2646 2.31973 11.9315C2.30474 11.9173 2.28995 11.9029 2.27538 11.8883C1.89929 11.5114 1.66675 10.9912 1.66675 10.4167V9.58342C1.66675 9.00891 1.89929 8.48873 2.27538 8.11184C2.28995 8.09724 2.30474 8.08286 2.31973 8.06869C2.6724 7.73555 3.14135 7.52423 3.65931 7.50202L3.67679 7.50135C3.70112 7.50051 3.72555 7.50008 3.75008 7.50008H3.76197C3.79584 7.50008 3.82629 7.47949 3.83927 7.4482C3.85225 7.41689 3.84527 7.38081 3.8213 7.35684L3.8129 7.34843C3.79555 7.33109 3.77857 7.31351 3.76197 7.29571L3.75008 7.28287C3.39953 6.90091 3.21736 6.41987 3.20355 5.93493C3.20297 5.91432 3.20268 5.8937 3.20271 5.87308C3.20327 5.34064 3.40666 4.80839 3.8129 4.40215L4.40215 3.8129C4.80839 3.40666 5.34064 3.20327 5.87308 3.20271C5.8937 3.20268 5.91432 3.20297 5.93494 3.20355C6.41987 3.21736 6.90091 3.39953 7.28287 3.75008L7.29571 3.76197C7.31351 3.77857 7.33108 3.79555 7.34843 3.8129L7.35684 3.8213C7.38081 3.84527 7.41689 3.85225 7.4482 3.83927C7.47949 3.82629 7.50008 3.79584 7.50008 3.76197V3.75008C7.50008 3.72555 7.50051 3.70112 7.50135 3.67679L7.50202 3.6593C7.52423 3.14135 7.73555 2.6724 8.06869 2.31973C8.08286 2.30474 8.09724 2.28995 8.11184 2.27538C8.48873 1.89929 9.00891 1.66675 9.58342 1.66675H10.4167ZM9.16675 16.2501C9.16675 16.4802 9.3533 16.6667 9.58341 16.6667H10.4167C10.6469 16.6667 10.8334 16.4802 10.8334 16.2501V16.2382C10.8334 15.5219 11.2677 14.8891 11.9135 14.6213C12.5607 14.353 13.3156 14.4942 13.8218 15.0004L13.8302 15.0088C13.993 15.1715 14.2568 15.1715 14.4195 15.0088L15.0088 14.4195C15.1715 14.2568 15.1715 13.993 15.0088 13.8302L15.0003 13.8218C14.4942 13.3156 14.353 12.5607 14.6214 11.9135C14.8892 11.2677 15.5219 10.8334 16.2382 10.8334H16.2501C16.4802 10.8334 16.6667 10.6469 16.6667 10.4167V9.58342C16.6667 9.3533 16.4802 9.16675 16.2501 9.16675H16.2382C15.5219 9.16675 14.8892 8.73243 14.6214 8.08663C14.353 7.43947 14.4942 6.68452 15.0004 6.17832L15.0088 6.16992C15.1715 6.0072 15.1715 5.74338 15.0088 5.58066L14.4195 4.99141C14.2568 4.82869 13.993 4.82869 13.8302 4.99141L13.8218 4.99981C13.3156 5.506 12.5607 5.64717 11.9136 5.37882C11.2677 5.11101 10.8334 4.47826 10.8334 3.76197V3.75008C10.8334 3.51996 10.6469 3.33341 10.4167 3.33341H9.58342C9.3533 3.33341 9.16675 3.51996 9.16675 3.75008V3.76197C9.16675 4.47826 8.73244 5.11101 8.08661 5.37882C7.43946 5.64717 6.68452 5.506 6.17832 4.99981L6.16992 4.99141C6.0072 4.82869 5.74338 4.82869 5.58066 4.99141L4.99141 5.58066C4.82869 5.74338 4.82869 6.0072 4.99141 6.16992L4.99981 6.17832C5.50601 6.68452 5.64718 7.43947 5.37881 8.08663C5.11101 8.73243 4.47826 9.16675 3.76197 9.16675H3.75008C3.51996 9.16675 3.33341 9.3533 3.33341 9.58342V10.4167C3.33341 10.6469 3.51996 10.8334 3.75008 10.8334H3.76197C4.47826 10.8334 5.111 11.2677 5.37881 11.9135C5.64718 12.5607 5.50601 13.3156 4.99981 13.8218L4.99141 13.8302C4.82869 13.993 4.82869 14.2568 4.99141 14.4195L5.58066 15.0088C5.74338 15.1715 6.0072 15.1715 6.16992 15.0088L6.17832 15.0004C6.68452 14.4942 7.43946 14.353 8.08661 14.6213C8.73242 14.8891 9.16675 15.5219 9.16675 16.2382V16.2501Z" fill="#262E3D"/>
<path fill-rule="evenodd" clip-rule="evenodd" d="M10.0001 11.6667C10.9206 11.6667 11.6667 10.9206 11.6667 10.0001C11.6667 9.07961 10.9206 8.33341 10.0001 8.33341C9.07961 8.33341 8.33341 9.07961 8.33341 10.0001C8.33341 10.9206 9.07961 11.6667 10.0001 11.6667ZM10.0001 13.3334C11.841 13.3334 13.3334 11.841 13.3334 10.0001C13.3334 8.15913 11.841 6.66675 10.0001 6.66675C8.15913 6.66675 6.66675 8.15913 6.66675 10.0001C6.66675 11.841 8.15913 13.3334 10.0001 13.3334Z" fill="#262E3D"/>
</svg>
