<svg width="28" height="28" viewBox="0 0 28 28" fill="none" xmlns="http://www.w3.org/2000/svg">
<g clip-path="url(#clip0_169_608)">
<path d="M8.8416 18.6452L3.19129 16.567C3.02514 16.5057 2.88179 16.3949 2.78053 16.2496C2.67928 16.1043 2.625 15.9315 2.625 15.7544C2.625 15.5773 2.67928 15.4044 2.78053 15.2591C2.88179 15.1138 3.02514 15.0031 3.19129 14.9417L8.8416 12.8636C8.95925 12.8205 9.06609 12.7523 9.15468 12.6637C9.24327 12.5751 9.31149 12.4683 9.35457 12.3506L11.4327 6.70032C11.494 6.53417 11.6048 6.39082 11.7501 6.28957C11.8954 6.18832 12.0682 6.13403 12.2453 6.13403C12.4224 6.13403 12.5953 6.18832 12.7406 6.28957C12.8859 6.39082 12.9967 6.53417 13.058 6.70032L15.1361 12.3506C15.1792 12.4683 15.2474 12.5751 15.336 12.6637C15.4246 12.7523 15.5314 12.8205 15.6491 12.8636L21.2994 14.9417C21.4656 15.0031 21.6089 15.1138 21.7102 15.2591C21.8114 15.4044 21.8657 15.5773 21.8657 15.7544C21.8657 15.9315 21.8114 16.1043 21.7102 16.2496C21.6089 16.3949 21.4656 16.5057 21.2994 16.567L15.6491 18.6452C15.5314 18.6882 15.4246 18.7565 15.336 18.845C15.2474 18.9336 15.1792 19.0405 15.1361 19.1581L13.058 24.8084C12.9967 24.9746 12.8859 25.1179 12.7406 25.2192C12.5953 25.3204 12.4224 25.3747 12.2453 25.3747C12.0682 25.3747 11.8954 25.3204 11.7501 25.2192C11.6048 25.1179 11.494 24.9746 11.4327 24.8084L9.35457 19.1581C9.31149 19.0405 9.24327 18.9336 9.15468 18.845C9.06609 18.7565 8.95925 18.6882 8.8416 18.6452Z" fill="white" stroke="white" stroke-width="1.75" stroke-linecap="round" stroke-linejoin="round"/>
<path d="M19.25 1.75V7" stroke="white" stroke-width="1.75" stroke-linecap="round" stroke-linejoin="round"/>
<path d="M24.5 7.875V11.375" stroke="white" stroke-width="1.75" stroke-linecap="round" stroke-linejoin="round"/>
<path d="M16.625 4.375H21.875" stroke="white" stroke-width="1.75" stroke-linecap="round" stroke-linejoin="round"/>
<path d="M22.75 9.625H26.25" stroke="white" stroke-width="1.75" stroke-linecap="round" stroke-linejoin="round"/>
</g>
<defs>
<clipPath id="clip0_169_608">
<rect width="28" height="28" fill="white"/>
</clipPath>
</defs>
</svg>
